<?xml version="1.0" encoding="utf-8"?>
<!-- Generator: Adobe Illustrator 19.2.0, SVG Export Plug-In . SVG Version: 6.00 Build 0)  -->
<svg version="1.1" id="Layer_1" xmlns="http://www.w3.org/2000/svg" xmlns:xlink="http://www.w3.org/1999/xlink" x="0px" y="0px"
	 viewBox="0 0 24 24" enable-background="new 0 0 24 24" xml:space="preserve">
<path fill="#87D7FF" d="M22.3,11.5c-0.7-0.5-3.1-1-6.4-1l-1.7-2c-0.4-0.4-0.9-0.7-1.5-0.7H4.5c-0.4,0-0.8,0.2-1.1,0.5l-2,2
	c-0.2,0.2-0.3,0.4-0.4,0.7L0.7,12l5.8,2.7h16.3v-2.2C22.9,12.1,22.6,11.7,22.3,11.5z"/>
<path fill="#64BEF0" d="M14.1,8.4c-0.4-0.4-0.9-0.7-1.5-0.7H4.5c-0.4,0-0.8,0.2-1.1,0.5l-1.9,1.9h1c0.4,0,0.7,0,1.1,0.1l3,0.3h9.3
	L14.1,8.4z"/>
<path fill="#625D6B" d="M13.5,10.4H7.1c-0.3,0-0.7,0-1-0.1l-2-0.2c-0.4,0-0.6-0.5-0.4-0.9l0.7-0.9C4.5,8.2,4.8,8.1,5,8.1h6.6
	c0.2,0,0.4,0.1,0.6,0.3l1.4,1.7C13.8,10.3,13.7,10.4,13.5,10.4z"/>
<path fill="#64BEF0" d="M22.9,12.8c0-0.8-1.2-1.6-6.6-1.6H1.1c-0.2,0-0.4,0.2-0.4,0.4l0,1.9l7.4,0.8h14.7V12.8z"/>
<path fill="#00AADC" d="M22.9,13.9H4.7l-3.4-0.8c-0.2,0-0.4,0.1-0.5,0.3c0,0.2,0.1,0.4,0.3,0.5l3.5,0.8c0,0,0.1,0,0.1,0h18.2
	c0.2,0,0.4-0.2,0.4-0.4S23.1,13.9,22.9,13.9z"/>
<circle fill="#EDEDEE" cx="4" cy="14.1" r="1.8"/>
<path fill="#504B5A" d="M4,16.3c-1.2,0-2.1-1-2.1-2.1C1.9,13,2.9,12,4,12s2.1,1,2.1,2.1S5.2,16.3,4,16.3z M4,12.8
	c-0.7,0-1.4,0.6-1.4,1.4s0.6,1.4,1.4,1.4s1.4-0.6,1.4-1.4C5.4,13.4,4.8,12.8,4,12.8z"/>
<circle fill="#DCDBDE" cx="4" cy="14.1" r="0.8"/>
<g>
	<path fill="#00AADC" d="M16.3,13.2H7c-0.2,0-0.4-0.2-0.4-0.4l0,0c0-0.2,0.2-0.4,0.4-0.4h9.3c0.2,0,0.4,0.2,0.4,0.4l0,0
		C16.7,13,16.5,13.2,16.3,13.2z"/>
	<path fill="#00AADC" d="M22.9,13.2h-0.4c-0.2,0-0.4-0.2-0.4-0.4l0,0c0-0.2,0.2-0.4,0.4-0.4h0.4c0.2,0,0.4,0.2,0.4,0.4l0,0
		C23.2,13,23.1,13.2,22.9,13.2z"/>
</g>
<rect x="9.3" y="8.1" fill="#504B5A" width="0.8" height="2.3"/>
<path fill="#EDEDEE" d="M22.4,11.6h-0.4c-0.2,0-0.4,0.2-0.4,0.4c0,0.2,0.2,0.4,0.4,0.4h0.8C22.8,12.1,22.7,11.8,22.4,11.6z"/>
<path fill="#625D6B" d="M14.1,8.4c-0.1-0.1-0.2-0.2-0.3-0.3h-0.6c-0.2,0-0.3,0.2-0.1,0.3l1.4,1.7c0.1,0.2,0.4,0.3,0.6,0.3h0.8
	L14.1,8.4z"/>
<polygon fill="#504B5A" points="5.8,10.4 6.6,8.1 5.8,8.1 4.7,10.2 "/>
<path fill="#FF6464" d="M1,10.9l-0.1,0.4h1c0.2,0,0.4-0.2,0.4-0.4s-0.2-0.4-0.4-0.4H1.2C1.1,10.6,1.1,10.7,1,10.9z"/>
<circle fill="#EDEDEE" cx="19.2" cy="14.1" r="1.8"/>
<path fill="#504B5A" d="M19.2,16.3c-1.2,0-2.1-1-2.1-2.1c0-1.2,1-2.1,2.1-2.1s2.1,1,2.1,2.1S20.4,16.3,19.2,16.3z M19.2,12.8
	c-0.7,0-1.4,0.6-1.4,1.4s0.6,1.4,1.4,1.4s1.4-0.6,1.4-1.4S19.9,12.8,19.2,12.8z"/>
<circle fill="#DCDBDE" cx="19.2" cy="14.1" r="0.8"/>
</svg>
