<?xml version="1.0" encoding="utf-8"?>
<!-- Generator: Adobe Illustrator 19.2.0, SVG Export Plug-In . SVG Version: 6.00 Build 0)  -->
<svg version="1.1" id="Layer_1" xmlns="http://www.w3.org/2000/svg" xmlns:xlink="http://www.w3.org/1999/xlink" x="0px" y="0px"
	 viewBox="0 0 24 24" enable-background="new 0 0 24 24" xml:space="preserve">
<path fill="#FFB47D" d="M22.2,11.3c-0.7-0.4-3.1-1-6.3-1l-1.7-2c-0.4-0.4-0.9-0.7-1.5-0.7H7.5C6.9,7.6,6.4,7.8,6,8.1l-2,1.7
	l-2.2,0.3c-0.3,0-0.6,0.3-0.6,0.6l-0.3,1l5.8,2.7h16.1v-2.2C22.7,11.9,22.5,11.5,22.2,11.3z"/>
<path fill="#FF9164" d="M22.7,12.6c0-0.8-1.2-1.5-6.5-1.5h-15c-0.2,0-0.4,0.2-0.4,0.4v2.3l7.3,1.2h14.6L22.7,12.6L22.7,12.6z"/>
<path fill="#FF7D5A" d="M22.7,14.1h-18l-3.4-0.8c-0.2,0-0.4,0.1-0.5,0.3c0,0.2,0.1,0.4,0.3,0.5l3.5,0.8c0,0,0.1,0,0.1,0h18
	c0.2,0,0.4-0.2,0.4-0.4C23.1,14.3,23,14.1,22.7,14.1z"/>
<circle fill="#EDEDEE" cx="19.3" cy="14.1" r="1.9"/>
<path fill="#504B5A" d="M19.3,16.4c-1.3,0-2.3-1-2.3-2.3s1-2.3,2.3-2.3c1.3,0,2.3,1,2.3,2.3S20.6,16.4,19.3,16.4z M19.3,12.6
	c-0.8,0-1.5,0.7-1.5,1.5c0,0.8,0.7,1.5,1.5,1.5c0.8,0,1.5-0.7,1.5-1.5C20.8,13.3,20.1,12.6,19.3,12.6z"/>
<circle fill="#DCDBDE" cx="19.3" cy="14.1" r="0.8"/>
<circle fill="#EDEDEE" cx="4.7" cy="14.1" r="1.9"/>
<path fill="#504B5A" d="M4.7,16.4c-1.3,0-2.3-1-2.3-2.3s1-2.3,2.3-2.3s2.3,1,2.3,2.3C7,15.4,6,16.4,4.7,16.4z M4.7,12.6
	c-0.8,0-1.5,0.7-1.5,1.5c0,0.8,0.7,1.5,1.5,1.5s1.5-0.7,1.5-1.5C6.2,13.3,5.6,12.6,4.7,12.6z"/>
<circle fill="#DCDBDE" cx="4.7" cy="14.1" r="0.8"/>
<g>
	<path fill="#FF7D5A" d="M16.2,13.3H8.2c-0.2,0-0.4-0.2-0.4-0.4l0,0c0-0.2,0.2-0.4,0.4-0.4h8.1c0.2,0,0.4,0.2,0.4,0.4l0,0
		C16.6,13.2,16.4,13.3,16.2,13.3z"/>
	<path fill="#FF7D5A" d="M22.7,13.3h-0.4c-0.2,0-0.4-0.2-0.4-0.4l0,0c0-0.2,0.2-0.4,0.4-0.4h0.4c0.2,0,0.4,0.2,0.4,0.4l0,0
		C23.1,13.2,23,13.3,22.7,13.3z"/>
</g>
<path fill="#FF9164" d="M3.9,9.9l2-1.7c0.4-0.4,0.9-0.6,1.5-0.6h5.2c0.6,0,1.1,0.2,1.5,0.7l1.7,2H6.8c-0.3,0-0.7,0-1-0.1L3.9,9.9z"
	/>
<path fill="#625D6B" d="M12.2,8.2C12.1,8.1,11.9,8,11.6,8H8.1C7.9,8,7.7,8.1,7.6,8.2L6.4,9.3C6.3,9.4,6.2,9.6,6.2,9.7l0,0
	c0,0.3,0.2,0.5,0.5,0.5h6.7c0.2,0,0.3-0.2,0.1-0.3L12.2,8.2z"/>
<polygon fill="#504B5A" points="8.9,10.3 7.8,10.3 8.5,8 9.3,8 "/>
<path fill="#EDEDEE" d="M22.3,11.4H22c-0.2,0-0.4,0.2-0.4,0.4c0,0.2,0.2,0.4,0.4,0.4h0.8C22.7,11.9,22.6,11.6,22.3,11.4z"/>
<path fill="#625D6B" d="M14.1,8.3C14,8.2,13.9,8.1,13.8,8h-0.6C13,8,12.9,8.2,13,8.3l1.4,1.7c0.1,0.2,0.4,0.3,0.6,0.3h0.8L14.1,8.3z
	"/>
<path fill="#FF6464" d="M0.9,11.4v0.4h0.8c0.2,0,0.4-0.2,0.4-0.4S1.9,11,1.6,11H1.3C1,11,0.9,11.2,0.9,11.4z"/>
</svg>
