<?xml version="1.0" encoding="utf-8"?>
<!-- Generator: Adobe Illustrator 19.2.0, SVG Export Plug-In . SVG Version: 6.00 Build 0)  -->
<svg version="1.1" id="Layer_1" xmlns="http://www.w3.org/2000/svg" xmlns:xlink="http://www.w3.org/1999/xlink" x="0px" y="0px"
	 viewBox="0 0 24 24" enable-background="new 0 0 24 24" xml:space="preserve">
<g>
	<rect x="1.9" y="7.8" transform="matrix(0.7809 -0.6247 0.6247 0.7809 -5.1744 3.4298)" fill="#C7CFE2" width="0.8" height="2.5"/>
	<path fill="#C7CFE2" d="M9.8,10.1c-0.3,0-0.4-0.3-0.3-0.5l0.3-0.5c0.2-0.3,0.6-0.6,1-0.6c0,0,0,0,0,0h1.9c0.4,0,0.7,0.2,0.9,0.5
		l1.4,1.8L9.8,10.1z"/>
	<path fill="#C7CFE2" d="M15,8.2c0,0-0.1-0.1-0.1-0.1h-1.7l2.7,3.1l1.6-0.8C17.4,10.4,15.6,8.8,15,8.2z"/>
</g>
<path fill="#FF6464" d="M19,10.1h-1.6c-0.2,0-0.5,0.1-0.6,0.2l-0.5,0.4c-0.1,0-0.1,0.1-0.2,0.1l-1.4-1.9c-0.1-0.1,0-0.3,0.1-0.3h0.6
	c-0.1-0.1-0.2-0.2-0.3-0.3c-0.3-0.3-0.9-0.5-2.2-0.5h-1.9c-0.8,0-1.7,0.2-2.4,0.6L5.7,9.7H2.3c-0.6,0-1.2,0.5-1.2,1.2v3.5l2.7,0.8
	h19v-1.2C22.9,11.8,21.1,10.1,19,10.1z M9.8,10.1c-0.3,0-0.4-0.3-0.3-0.5l0.3-0.5c0.2-0.3,0.6-0.6,1-0.6c0,0,0,0,0,0h1.9
	c0.4,0,0.7,0.2,0.9,0.5l1.4,1.8L9.8,10.1z"/>
<path fill="#D2555A" d="M22.9,15.5H5.4c-0.2,0-0.4-0.2-0.4-0.4s0.2-0.4,0.4-0.4h17.5c0.2,0,0.4,0.2,0.4,0.4S23.1,15.5,22.9,15.5z"/>
<circle fill="#D7DEED" cx="19" cy="13.9" r="1.9"/>
<path fill="#464655" d="M19,16.3c-1.3,0-2.3-1-2.3-2.3s1-2.3,2.3-2.3c1.3,0,2.3,1,2.3,2.3C21.3,15.2,20.3,16.3,19,16.3z M19,12.4
	c-0.9,0-1.6,0.7-1.6,1.6s0.7,1.6,1.6,1.6c0.9,0,1.6-0.7,1.6-1.6S19.8,12.4,19,12.4z"/>
<circle fill="#B8BFD4" cx="19" cy="13.9" r="0.8"/>
<g>
	<path fill="#D2555A" d="M4.2,15.5C4.2,15.5,4.2,15.5,4.2,15.5L1,14.7c-0.2-0.1-0.3-0.3-0.3-0.5C0.8,14,1,13.9,1.2,14l3.1,0.8
		c0.2,0.1,0.3,0.3,0.3,0.5C4.6,15.4,4.4,15.5,4.2,15.5z"/>
	<path fill="#D2555A" d="M1.1,12l0.5,0.5c0.1,0.1,0.2,0.3,0.2,0.5v1.6l-0.8-0.4C1.1,14.3,1.1,12,1.1,12z"/>
	<path fill="#D2555A" d="M13.7,13.9H7c-0.2,0-0.4-0.2-0.4-0.4s0.2-0.4,0.4-0.4h6.7c0.3,0,0.6-0.1,0.8-0.3l0.6-0.6
		c0.2-0.2,0.4-0.2,0.5,0c0.2,0.2,0.2,0.4,0,0.5l-0.6,0.6C14.7,13.7,14.2,13.9,13.7,13.9z"/>
</g>
<circle fill="#D7DEED" cx="5" cy="13.9" r="1.9"/>
<path fill="#464655" d="M5,16.3c-1.3,0-2.3-1-2.3-2.3s1-2.3,2.3-2.3s2.3,1,2.3,2.3C7.3,15.2,6.3,16.3,5,16.3z M5,12.4
	c-0.9,0-1.6,0.7-1.6,1.6s0.7,1.6,1.6,1.6s1.6-0.7,1.6-1.6C6.6,13.1,5.9,12.4,5,12.4z"/>
<circle fill="#B8BFD4" cx="5" cy="13.9" r="0.8"/>
<path fill="#FF8B8B" d="M1.4,10.1l14.9,1.5c0.2,0,0.4,0,0.6-0.1c0.9-0.4,4-1.5,5.9,2c-0.2-1.9-1.9-3.4-3.9-3.4h-1.6
	c-0.2,0-0.5,0.1-0.6,0.2l-0.5,0.4c-0.1,0-0.1,0.1-0.2,0.1c0,0-0.1,0.2-0.9,0.1L12,10.4c-2.6-0.3-5.9-0.7-6.3-0.7H2.3
	C1.9,9.7,1.6,9.8,1.4,10.1z"/>
<path fill="#FF6464" d="M2.7,8.9h-1C1.4,8.9,1.1,8.7,1,8.4L0.8,8c0-0.1,0.1-0.3,0.2-0.3h1.6c0.2,0,0.4,0.2,0.4,0.4v0.4
	C3.1,8.7,2.9,8.9,2.7,8.9z"/>
</svg>
