<?xml version="1.0" encoding="utf-8"?>
<!-- Generator: Adobe Illustrator 19.2.0, SVG Export Plug-In . SVG Version: 6.00 Build 0)  -->
<svg version="1.1" id="Layer_1" xmlns="http://www.w3.org/2000/svg" xmlns:xlink="http://www.w3.org/1999/xlink" x="0px" y="0px"
	 viewBox="0 0 24 24" enable-background="new 0 0 24 24" xml:space="preserve">
<path fill="#FDC794" d="M21.7,8.6c0.5-0.9,0-1.9-1.1-2.1c-0.5-0.1-1.2,0.3-1.7,1.1l-2.4,3.7l1.8-6.4c0.2-0.6,0-1.3-0.6-1.7
	c-0.2-0.2-0.5-0.3-0.8-0.3c-0.8,0-1.3,0.9-1.5,1.5l-1.9,5.7V2.5c0-0.8-0.6-1.5-1.4-1.5c-0.9,0-1.6,0.5-1.6,1.5v8.4L8.6,4.1
	C8.3,3,7.9,2.5,7,2.5c-0.6,0-1.2,0.4-1.4,1C5.5,3.7,5.5,4,5.6,4.3l1.8,8.1l-0.7-1C6,10,4.1,9.4,2.9,9.9c-0.2,0-0.3,0.2-0.5,0.2
	c-0.5,0.3-0.4,0.6-0.4,0.8c0,0.1,2.2,2.3,3.4,4.6c0,0,1.1,1.8,2.3,3v1.1c0,1.9,1.5,3.4,3.4,3.4H15c1.5,0,3-1.3,3.4-2.7
	c0.1-0.3,0.2-0.8,0.5-1.1c0.4-0.5,1-1.9,0.6-3.8c-0.1-0.6-0.1-1.7,0.1-2.3v0L21.7,8.6z"/>
<g>
	<path fill="#F9A671" d="M10.1,15.8c-0.2,0-0.4-0.2-0.4-0.3c0-0.5-0.3-0.6-0.6-0.8c-1.3-0.8-1.8-1.6-2-2c-0.1-0.2,0-0.4,0.2-0.5
		c0.2-0.1,0.4,0,0.5,0.2c0.2,0.3,0.5,1,1.8,1.8c0.3,0.2,0.9,0.6,0.9,1.4C10.5,15.6,10.3,15.8,10.1,15.8L10.1,15.8z"/>
	<path fill="#F9A671" d="M10.1,20.4C10,20.4,10,20.4,10.1,20.4c-1-0.2-1.4-0.7-1.8-1.2C8.1,19,8,18.9,7.9,18.8
		c-0.2-0.2-0.2-0.4,0-0.5s0.4-0.2,0.5,0c0.2,0.2,0.3,0.3,0.4,0.5c0.3,0.5,0.6,0.8,1.3,0.9c0.2,0,0.3,0.2,0.3,0.4
		C10.4,20.2,10.3,20.4,10.1,20.4z"/>
	<path fill="#F9A671" d="M13.5,11.2c-0.2,0-0.4-0.2-0.4-0.4v-0.8c0-0.2,0.2-0.4,0.4-0.4c0.2,0,0.4,0.2,0.4,0.4v0.8
		C13.9,11.1,13.7,11.2,13.5,11.2z"/>
	<path fill="#F9A671" d="M16.9,20.4c-0.2,0-0.3-0.1-0.4-0.3c0-0.2,0.1-0.4,0.3-0.5l0.2,0c0.8-0.2,0.9-0.2,1.1-0.5
		c0.1-0.2,0.4-0.2,0.5-0.1s0.2,0.4,0.1,0.5c-0.4,0.5-0.8,0.6-1.5,0.8h-0.2C17,20.4,17,20.4,16.9,20.4z"/>
</g>
</svg>
