<?xml version="1.0" encoding="utf-8"?>
<!-- Generator: Adobe Illustrator 19.2.0, SVG Export Plug-In . SVG Version: 6.00 Build 0)  -->
<svg version="1.1" id="Layer_1" xmlns="http://www.w3.org/2000/svg" xmlns:xlink="http://www.w3.org/1999/xlink" x="0px" y="0px"
	 viewBox="0 0 24 24" enable-background="new 0 0 24 24" xml:space="preserve">
<path fill="#FDC794" d="M20.2,8.6c0-0.8-0.7-1.5-1.5-1.5c-0.8,0-1.5,0.7-1.5,1.5v2.6V4.1c0-0.8-0.7-1.5-1.5-1.5
	c-0.8,0-1.5,0.9-1.5,1.5v4.5v-6c0-0.8-0.7-1.5-1.5-1.5s-1.5,0.6-1.5,1.5v6V4.2c0-1.1-0.7-1.6-1.5-1.6c-0.8,0-1.5,0.6-1.5,1.5v8.3
	l-0.7-1C6.7,10,4.9,9.4,3.7,9.9c-0.2,0-0.3,0.2-0.5,0.2c-0.5,0.3-0.4,0.6-0.4,0.8c0,0.1,2.1,2.3,3.4,4.5c0,0,1.1,1.8,2.3,3v1.1
	c0,1.9,1.5,3.4,3.4,3.4h3.8c1.5,0,3-1.2,3.3-2.7c0.1-0.3,0.2-0.8,0.5-1.1c0.3-0.4,0.8-1.3,0.8-2.6c0-0.3,0-3.1,0-3.4l0,0L20.2,8.6
	L20.2,8.6z"/>
<g>
	<path fill="#F9A671" d="M10.1,19.9c-0.1,0-0.2,0-0.3-0.1c-0.1-0.2-0.3-0.3-0.5-0.5c-0.2-0.2-0.5-0.5-0.6-0.6
		c-0.2-0.2-0.1-0.4,0-0.5c0.2-0.2,0.4-0.1,0.5,0c0.2,0.2,0.4,0.4,0.6,0.6c0.2,0.2,0.4,0.4,0.5,0.5c0.2,0.2,0.2,0.4,0,0.5
		C10.2,19.9,10.1,19.9,10.1,19.9z"/>
	<path fill="#F9A671" d="M8.6,13.5c-0.2,0-0.3-0.1-0.3-0.2l-0.4-0.8c-0.1-0.2,0-0.4,0.2-0.5c0.2-0.1,0.4,0,0.5,0.2l0.4,0.8
		c0.1,0.2,0,0.4-0.2,0.5C8.7,13.5,8.6,13.5,8.6,13.5z"/>
	<path fill="#F9A671" d="M11.2,12.1c-0.2,0-0.4-0.2-0.4-0.4V4.1c0-0.2,0.2-0.4,0.4-0.4s0.4,0.2,0.4,0.4v7.6
		C11.6,12,11.4,12.1,11.2,12.1z"/>
	<path fill="#F9A671" d="M14.2,11c-0.2,0-0.4-0.2-0.4-0.4V3.7c0-0.2,0.2-0.4,0.4-0.4c0.2,0,0.4,0.2,0.4,0.4v6.9
		C14.6,10.8,14.4,11,14.2,11z"/>
	<path fill="#F9A671" d="M17.2,12.5c-0.2,0-0.4-0.2-0.4-0.4V8.6c0-0.2,0.2-0.4,0.4-0.4c0.2,0,0.4,0.2,0.4,0.4v3.5
		C17.6,12.3,17.4,12.5,17.2,12.5z"/>
	<path fill="#F9A671" d="M18,19.9c-0.2,0-0.3-0.1-0.4-0.3c0-0.2,0.1-0.4,0.3-0.5c1-0.3,1.2-0.6,1.3-0.9c0.1-0.2,0.3-0.3,0.5-0.3
		c0.2,0.1,0.3,0.3,0.3,0.5C19.6,19.4,18.8,19.7,18,19.9C18,19.9,18,19.9,18,19.9z"/>
</g>
</svg>
