<?xml version="1.0" encoding="utf-8"?>
<!-- Generator: Adobe Illustrator 19.2.0, SVG Export Plug-In . SVG Version: 6.00 Build 0)  -->
<svg version="1.1" id="Layer_1" xmlns="http://www.w3.org/2000/svg" xmlns:xlink="http://www.w3.org/1999/xlink" x="0px" y="0px"
	 viewBox="0 0 24 24" enable-background="new 0 0 24 24" xml:space="preserve">
<path fill="#F9AB9B" d="M13,8.6h-2.7c-0.4,0-0.7-0.2-0.9-0.5L9.4,7.9C9.3,7.8,9.3,7.6,9.3,7.5V5.1c0-0.5,0.4-1,1-1H13
	c0.5,0,1,0.4,1,1v2.6C14,8.2,13.6,8.6,13,8.6L13,8.6C13.1,8.6,13.1,8.6,13,8.6z"/>
<path fill="#FFBCAB" d="M12.1,7.4v0.5c0,0.4,0.4,0.8,0.8,0.8h2.4h1c0.3,0,0.5-0.2,0.5-0.5V7.1c0-0.3-0.3-0.5-0.6-0.5L12.1,7.4z"/>
<path fill="#F29E91" d="M12,2.3h3.7c0.2,0,0.3,0.1,0.4,0.3l1,3.2c0,0.1,0,0.2-0.1,0.3l-1.1,1.3h-2.1L12,2.3z"/>
<path fill="#F9AB9B" d="M12.3,7.4h2.1l1.1-1.2c0.1-0.1,0.1-0.2,0.1-0.4l-1-3.2c0-0.1-0.2-0.2-0.3-0.2h-3.7l1.9,2.5L12.3,7.4z"/>
<path fill="#FFBCAB" d="M9.5,5.5c0.1-0.5,0.5-0.9,1-0.9c0,0,0,0,0,0h1.1L12,5.7h-0.5c-0.5,0-0.9,0.4-0.9,0.9v0.7h2.1l1.1-1.2
	c0.1-0.1,0.1-0.3,0.1-0.5l-1-3.4h-4L6.6,4.1l-5.5,11v2.7c0,0,2.9,2.4,6.6,2.4s6.7-1.5,6.7-1.5l2.9,2.9h5.7V9.1c-2.9,0-5,2.3-5,2.3
	c-4-1.1-5.1,2.8-5.1,2.8s-0.8-2.2-3.1-2.2s-3.2,2-3.2,2l2.7-6.2L9.5,5.5z"/>
<g>
	<path fill="#F9AB9B" d="M12.2,14.3c0.2,0,0.5,0,0.6-0.3c-0.7-1.6-1.9-2.2-3-2.2c-0.2,0-0.4,0-0.6,0.1c1.3,0.3,2.1,1.3,2.3,1.9
		C11.6,14.1,11.9,14.3,12.2,14.3z"/>
	<path fill="#F9AB9B" d="M13.9,18.6c-0.5-0.4-1.2-0.4-1.7-0.1c-1,0.7-2.9,1.6-5.1,1.7c0.2,0,0.4,0,0.5,0c2.5,0,5.4-0.9,6.6-1.4
		L13.9,18.6z"/>
	<polygon fill="#F9AB9B" points="9.6,5.3 6,13.9 6.6,13.9 9.3,7.7 10.1,5.7 	"/>
	<path fill="#F9AB9B" d="M22.9,11.6c0,0-2.1,0.5-2.1,3.2s1.3,3.7,1.3,3.7s-2.4,2.2-2.4,3.2h3.1V11.6L22.9,11.6z"/>
</g>
</svg>
