<?xml version="1.0" encoding="utf-8"?>
<!-- Generator: Adobe Illustrator 19.2.0, SVG Export Plug-In . SVG Version: 6.00 Build 0)  -->
<svg version="1.1" id="Capa_1" xmlns="http://www.w3.org/2000/svg" xmlns:xlink="http://www.w3.org/1999/xlink" x="0px" y="0px"
	 viewBox="0 0 24 24" enable-background="new 0 0 24 24" xml:space="preserve">
<g>
	<path fill="#FF926E" d="M12,10.7h-1.4v2.4H9.1v-2.4h-4V9.3h1.7V7.4h1.4v1.9h5.2v2.4h1.5V9.3h4V7.8h-1.7V5.9h-1.4v1.9H12V6.1H9.6
		V4.7H12V1c-1.1,0-2.1,0.6-2.5,1.5c-0.9-0.5-2-0.6-3-0.1C5.6,3,5,4,5.1,5.1C4,5,3,5.6,2.5,6.5c-0.5,1-0.5,2.1,0.1,3
		C1.6,9.9,1,10.9,1,12s0.6,2.1,1.5,2.5H12V10.7z"/>
	<path fill="#F46A1A" d="M21.5,9.5c0.5-0.9,0.6-2,0.1-3C21,5.6,20,5,18.9,5.1c0-1-0.5-2-1.4-2.6c-1-0.5-2.1-0.5-3,0.1
		C14.1,1.6,13.1,1,12,1v3.7h2.4v1.4H12v1.7h3.8V5.9h1.4v1.9h1.7v1.4h-4v2.4h-1.5V9.3H12v5.3h9.5c0.9-0.5,1.5-1.4,1.5-2.5
		S22.4,9.9,21.5,9.5z M19.8,13.1h-1.4v-1.4h1.4V13.1z"/>
	<path fill="#FFB76E" d="M16.7,14.5H12c0,2.3,1.6,4.2,3.8,4.6V23h1.9v-3.8c-0.3,0.1-0.6,0.1-1,0.1V14.5z"/>
	<rect x="9.6" y="4.7" fill="#FFB76E" width="2.4" height="1.4"/>
	<polygon fill="#FFB76E" points="8.2,7.4 6.7,7.4 6.7,9.3 5.1,9.3 5.1,10.7 9.1,10.7 9.1,13.1 10.6,13.1 10.6,10.7 12,10.7 12,9.3 
		8.2,9.3 	"/>
	<rect x="12" y="4.7" fill="#FF926E" width="2.4" height="1.4"/>
	<rect x="18.4" y="11.7" fill="#FF926E" width="1.4" height="1.4"/>
	<path fill="#FF926E" d="M16.7,19.3c0.3,0,0.6,0,1-0.1c2.2-0.4,3.8-2.3,3.8-4.6h-4.7V19.3z"/>
</g>
</svg>
