<svg xmlns="http://www.w3.org/2000/svg" viewBox="0 0 24 24"><path d="M1.182 8.334l.625-.5 1.561 1.952-.624.5zM9.8 10.1c-.3 0-.4-.3-.3-.5l.3-.5c.2-.3.6-.6 1-.6h1.9c.4 0 .7.2.9.5l1.4 1.8-5.2-.7zM15 8.2l-.1-.1h-1.7l2.7 3.1 1.6-.8c-.1 0-1.9-1.6-2.5-2.2z" fill="#C7CFE2"/><path fill="#FF6464" d="M19 10.1h-1.6c-.2 0-.5.1-.6.2l-.5.4c-.1 0-.1.1-.2.1l-1.4-1.9c-.1-.1 0-.3.1-.3h.6l-.3-.3c-.3-.3-.9-.5-2.2-.5H11c-.8 0-1.7.2-2.4.6L5.7 9.7H2.3c-.6 0-1.2.5-1.2 1.2v3.5l2.7.8h19V14c.1-2.2-1.7-3.9-3.8-3.9zm-9.2 0c-.3 0-.4-.3-.3-.5l.3-.5c.2-.3.6-.6 1-.6h1.9c.4 0 .7.2.9.5l1.4 1.8-5.2-.7z"/><path fill="#D2555A" d="M22.9 15.5H5.4c-.2 0-.4-.2-.4-.4s.2-.4.4-.4h17.5c.2 0 .4.2.4.4s-.2.4-.4.4z"/><circle fill="#D7DEED" cx="19" cy="13.9" r="1.9"/><path fill="#464655" d="M19 16.3c-1.3 0-2.3-1-2.3-2.3s1-2.3 2.3-2.3c1.3 0 2.3 1 2.3 2.3 0 1.2-1 2.3-2.3 2.3zm0-3.9c-.9 0-1.6.7-1.6 1.6s.7 1.6 1.6 1.6c.9 0 1.6-.7 1.6-1.6s-.8-1.6-1.6-1.6z"/><circle fill="#B8BFD4" cx="19" cy="13.9" r=".8"/><g fill="#D2555A"><path d="M4.2 15.5L1 14.7c-.2-.1-.3-.3-.3-.5.1-.2.3-.3.5-.2l3.1.8c.2.1.3.3.3.5 0 .1-.2.2-.4.2z"/><path d="M1.1 12l.5.5c.1.1.2.3.2.5v1.6l-.8-.4c.1.1.1-2.2.1-2.2zm12.6 1.9H7c-.2 0-.4-.2-.4-.4s.2-.4.4-.4h6.7c.3 0 .6-.1.8-.3l.6-.6c.2-.2.4-.2.5 0 .2.2.2.4 0 .5l-.6.6c-.3.4-.8.6-1.3.6z"/></g><circle fill="#D7DEED" cx="5" cy="13.9" r="1.9"/><path fill="#464655" d="M5 16.3c-1.3 0-2.3-1-2.3-2.3s1-2.3 2.3-2.3 2.3 1 2.3 2.3c0 1.2-1 2.3-2.3 2.3zm0-3.9c-.9 0-1.6.7-1.6 1.6s.7 1.6 1.6 1.6 1.6-.7 1.6-1.6c0-.9-.7-1.6-1.6-1.6z"/><circle fill="#B8BFD4" cx="5" cy="13.9" r=".8"/><path fill="#FF8B8B" d="M1.4 10.1l14.9 1.5c.2 0 .4 0 .6-.1.9-.4 4-1.5 5.9 2-.2-1.9-1.9-3.4-3.9-3.4h-1.6c-.2 0-.5.1-.6.2l-.5.4c-.1 0-.1.1-.2.1 0 0-.1.2-.9.1l-3.1-.5c-2.6-.3-5.9-.7-6.3-.7H2.3c-.4 0-.7.1-.9.4z"/><path fill="#FF6464" d="M2.7 8.9h-1c-.3 0-.6-.2-.7-.5L.8 8c0-.1.1-.3.2-.3h1.6c.2 0 .4.2.4.4v.4c.1.2-.1.4-.3.4z"/></svg>