<svg xmlns="http://www.w3.org/2000/svg" viewBox="0 0 24 24"><path fill="#FFB47D" d="M22.2 11.3c-.7-.4-3.1-1-6.3-1l-1.7-2c-.4-.4-.9-.7-1.5-.7H7.5c-.6 0-1.1.2-1.5.5L4 9.8l-2.2.3c-.3 0-.6.3-.6.6l-.3 1 5.8 2.7h16.1v-2.2c-.1-.3-.3-.7-.6-.9z"/><path fill="#FF9164" d="M22.7 12.6c0-.8-1.2-1.5-6.5-1.5h-15c-.2 0-.4.2-.4.4v2.3L8.1 15h14.6v-2.4z"/><path fill="#FF7D5A" d="M22.7 14.1h-18l-3.4-.8c-.2 0-.4.1-.5.3 0 .2.1.4.3.5l3.5.8h18.1c.2 0 .4-.2.4-.4s-.1-.4-.4-.4z"/><circle fill="#EDEDEE" cx="19.3" cy="14.1" r="1.9"/><path fill="#504B5A" d="M19.3 16.4c-1.3 0-2.3-1-2.3-2.3s1-2.3 2.3-2.3c1.3 0 2.3 1 2.3 2.3s-1 2.3-2.3 2.3zm0-3.8c-.8 0-1.5.7-1.5 1.5s.7 1.5 1.5 1.5 1.5-.7 1.5-1.5-.7-1.5-1.5-1.5z"/><circle fill="#DCDBDE" cx="19.3" cy="14.1" r=".8"/><circle fill="#EDEDEE" cx="4.7" cy="14.1" r="1.9"/><path fill="#504B5A" d="M4.7 16.4c-1.3 0-2.3-1-2.3-2.3s1-2.3 2.3-2.3 2.3 1 2.3 2.3c0 1.3-1 2.3-2.3 2.3zm0-3.8c-.8 0-1.5.7-1.5 1.5s.7 1.5 1.5 1.5 1.5-.7 1.5-1.5-.6-1.5-1.5-1.5z"/><circle fill="#DCDBDE" cx="4.7" cy="14.1" r=".8"/><path d="M16.2 13.3h-8c-.2 0-.4-.2-.4-.4s.2-.4.4-.4h8.1c.2 0 .4.2.4.4-.1.3-.3.4-.5.4zm6.5 0h-.4c-.2 0-.4-.2-.4-.4s.2-.4.4-.4h.4c.2 0 .4.2.4.4 0 .3-.1.4-.4.4z" fill="#FF7D5A"/><path fill="#FF9164" d="M3.9 9.9l2-1.7c.4-.4.9-.6 1.5-.6h5.2c.6 0 1.1.2 1.5.7l1.7 2h-9c-.3 0-.7 0-1-.1l-1.9-.3z"/><path fill="#625D6B" d="M12.2 8.2c-.1-.1-.3-.2-.6-.2H8.1c-.2 0-.4.1-.5.2L6.4 9.3c-.1.1-.2.3-.2.4 0 .3.2.5.5.5h6.7c.2 0 .3-.2.1-.3l-1.3-1.7z"/><path fill="#504B5A" d="M8.9 10.3H7.8L8.5 8h.8z"/><path fill="#EDEDEE" d="M22.3 11.4H22c-.2 0-.4.2-.4.4s.2.4.4.4h.8c-.1-.3-.2-.6-.5-.8z"/><path fill="#625D6B" d="M14.1 8.3l-.3-.3h-.6c-.2 0-.3.2-.2.3l1.4 1.7c.1.2.4.3.6.3h.8l-1.7-2z"/><path fill="#FF6464" d="M.9 11.4v.4h.8c.2 0 .4-.2.4-.4s-.2-.4-.5-.4h-.3c-.3 0-.4.2-.4.4z"/></svg>