<svg xmlns="http://www.w3.org/2000/svg" viewBox="0 0 24 24"><path fill="#87D7FF" d="M22.3 11.5c-.7-.5-3.1-1-6.4-1l-1.7-2c-.4-.4-.9-.7-1.5-.7H4.5c-.4 0-.8.2-1.1.5l-2 2c-.2.2-.3.4-.4.7l-.3 1 5.8 2.7h16.3v-2.2c.1-.4-.2-.8-.5-1z"/><path fill="#64BEF0" d="M14.1 8.4c-.4-.4-.9-.7-1.5-.7H4.5c-.4 0-.8.2-1.1.5l-1.9 1.9h1c.4 0 .7 0 1.1.1l3 .3h9.3l-1.8-2.1z"/><path fill="#625D6B" d="M13.5 10.4H7.1c-.3 0-.7 0-1-.1l-2-.2c-.4 0-.6-.5-.4-.9l.7-.9c.1-.1.4-.2.6-.2h6.6c.2 0 .4.1.6.3l1.4 1.7c.2.2.1.3-.1.3z"/><path fill="#64BEF0" d="M22.9 12.8c0-.8-1.2-1.6-6.6-1.6H1.1c-.2 0-.4.2-.4.4v1.9l7.4.8h14.7v-1.5z"/><path fill="#00AADC" d="M22.9 13.9H4.7l-3.4-.8c-.2 0-.4.1-.5.3 0 .2.1.4.3.5l3.5.8h18.3c.2 0 .4-.2.4-.4s-.2-.4-.4-.4z"/><circle fill="#EDEDEE" cx="4" cy="14.1" r="1.8"/><path fill="#504B5A" d="M4 16.3c-1.2 0-2.1-1-2.1-2.1C1.9 13 2.9 12 4 12s2.1 1 2.1 2.1-.9 2.2-2.1 2.2zm0-3.5c-.7 0-1.4.6-1.4 1.4s.6 1.4 1.4 1.4 1.4-.6 1.4-1.4c0-.8-.6-1.4-1.4-1.4z"/><circle fill="#DCDBDE" cx="4" cy="14.1" r=".8"/><path d="M16.3 13.2H7c-.2 0-.4-.2-.4-.4s.2-.4.4-.4h9.3c.2 0 .4.2.4.4s-.2.4-.4.4zm6.6 0h-.4c-.2 0-.4-.2-.4-.4s.2-.4.4-.4h.4c.2 0 .4.2.4.4-.1.2-.2.4-.4.4z" fill="#00AADC"/><path fill="#504B5A" d="M9.3 8.1h.8v2.3h-.8z"/><path fill="#EDEDEE" d="M22.4 11.6H22c-.2 0-.4.2-.4.4s.2.4.4.4h.8c0-.3-.1-.6-.4-.8z"/><path fill="#625D6B" d="M14.1 8.4l-.3-.3h-.6c-.2 0-.3.2-.1.3l1.4 1.7c.1.2.4.3.6.3h.8l-1.8-2z"/><path fill="#504B5A" d="M5.8 10.4l.8-2.3h-.8l-1.1 2.1z"/><path fill="#FF6464" d="M1 10.9l-.1.4h1c.2 0 .4-.2.4-.4s-.2-.4-.4-.4h-.7c-.1.1-.1.2-.2.4z"/><circle fill="#EDEDEE" cx="19.2" cy="14.1" r="1.8"/><path fill="#504B5A" d="M19.2 16.3c-1.2 0-2.1-1-2.1-2.1 0-1.2 1-2.1 2.1-2.1s2.1 1 2.1 2.1-.9 2.1-2.1 2.1zm0-3.5c-.7 0-1.4.6-1.4 1.4s.6 1.4 1.4 1.4 1.4-.6 1.4-1.4-.7-1.4-1.4-1.4z"/><circle fill="#DCDBDE" cx="19.2" cy="14.1" r=".8"/></svg>