<svg xmlns="http://www.w3.org/2000/svg" viewBox="0 0 24 24"><path fill="#FDC794" d="M21.7 8.6c.5-.9 0-1.9-1.1-2.1-.5-.1-1.2.3-1.7 1.1l-2.4 3.7 1.8-6.4c.2-.6 0-1.3-.6-1.7-.2-.2-.5-.3-.8-.3-.8 0-1.3.9-1.5 1.5l-1.9 5.7V2.5c0-.8-.6-1.5-1.4-1.5-.9 0-1.6.5-1.6 1.5v8.4L8.6 4.1C8.3 3 7.9 2.5 7 2.5c-.6 0-1.2.4-1.4 1-.1.2-.1.5 0 .8l1.8 8.1-.7-1C6 10 4.1 9.4 2.9 9.9c-.2 0-.3.2-.5.2-.5.3-.4.6-.4.8 0 .1 2.2 2.3 3.4 4.6 0 0 1.1 1.8 2.3 3v1.1c0 1.9 1.5 3.4 3.4 3.4H15c1.5 0 3-1.3 3.4-2.7.1-.3.2-.8.5-1.1.4-.5 1-1.9.6-3.8-.1-.6-.1-1.7.1-2.3l2.1-4.5z"/><path d="M10.1 15.8c-.2 0-.4-.2-.4-.3 0-.5-.3-.6-.6-.8-1.3-.8-1.8-1.6-2-2-.1-.2 0-.4.2-.5.2-.1.4 0 .5.2.2.3.5 1 1.8 1.8.3.2.9.6.9 1.4 0 0-.2.2-.4.2zm0 4.6c-.1 0-.1 0 0 0-1-.2-1.4-.7-1.8-1.2l-.4-.4c-.2-.2-.2-.4 0-.5s.4-.2.5 0c.2.2.3.3.4.5.3.5.6.8 1.3.9.2 0 .3.2.3.4 0 .1-.1.3-.3.3zm3.4-9.2c-.2 0-.4-.2-.4-.4V10c0-.2.2-.4.4-.4s.4.2.4.4v.8c0 .3-.2.4-.4.4zm3.4 9.2c-.2 0-.3-.1-.4-.3 0-.2.1-.4.3-.5h.2c.8-.2.9-.2 1.1-.5.1-.2.4-.2.5-.1s.2.4.1.5c-.4.5-.8.6-1.5.8H17c0 .1 0 .1-.1.1z" fill="#F9A671"/></svg>