<svg xmlns="http://www.w3.org/2000/svg" viewBox="0 0 24 24"><path fill="#FDC794" d="M20.2 8.6c0-.8-.7-1.5-1.5-1.5s-1.5.7-1.5 1.5v2.6-7.1c0-.8-.7-1.5-1.5-1.5s-1.5.9-1.5 1.5v4.5-6c0-.8-.7-1.5-1.5-1.5s-1.5.6-1.5 1.5v6-4.4c0-1.1-.7-1.6-1.5-1.6s-1.5.6-1.5 1.5v8.3l-.7-1c-.8-1.4-2.6-2-3.8-1.5-.2 0-.3.2-.5.2-.5.3-.4.6-.4.8 0 .1 2.1 2.3 3.4 4.5 0 0 1.1 1.8 2.3 3v1.1c0 1.9 1.5 3.4 3.4 3.4h3.8c1.5 0 3-1.2 3.3-2.7.1-.3.2-.8.5-1.1.3-.4.8-1.3.8-2.6v-3.4l-.1-4.5z"/><path d="M10.1 19.9c-.1 0-.2 0-.3-.1-.1-.2-.3-.3-.5-.5l-.6-.6c-.2-.2-.1-.4 0-.5.2-.2.4-.1.5 0l.6.6.5.5c.2.2.2.4 0 .5-.1.1-.2.1-.2.1zm-1.5-6.4c-.2 0-.3-.1-.3-.2l-.4-.8c-.1-.2 0-.4.2-.5.2-.1.4 0 .5.2l.4.8c.1.2 0 .4-.2.5h-.2zm2.6-1.4c-.2 0-.4-.2-.4-.4V4.1c0-.2.2-.4.4-.4s.4.2.4.4v7.6c0 .3-.2.4-.4.4zm3-1.1c-.2 0-.4-.2-.4-.4V3.7c0-.2.2-.4.4-.4s.4.2.4.4v6.9c0 .2-.2.4-.4.4zm3 1.5c-.2 0-.4-.2-.4-.4V8.6c0-.2.2-.4.4-.4s.4.2.4.4v3.5c0 .2-.2.4-.4.4zm.8 7.4c-.2 0-.3-.1-.4-.3 0-.2.1-.4.3-.5 1-.3 1.2-.6 1.3-.9.1-.2.3-.3.5-.3.2.1.3.3.3.5-.4 1-1.2 1.3-2 1.5z" fill="#F9A671"/></svg>