<svg xmlns="http://www.w3.org/2000/svg" viewBox="0 0 24 24"><path fill="#F9AB9B" d="M13 8.6h-2.7c-.4 0-.7-.2-.9-.5v-.2c-.1-.1-.1-.3-.1-.4V5.1c0-.5.4-1 1-1H13c.5 0 1 .4 1 1v2.6c0 .5-.4.9-1 .9.1 0 .1 0 0 0z"/><path fill="#FFBCAB" d="M12.1 7.4v.5c0 .4.4.8.8.8h3.4c.3 0 .5-.2.5-.5V7.1c0-.3-.3-.5-.6-.5l-4.1.8z"/><path fill="#F29E91" d="M12 2.3h3.7c.2 0 .3.1.4.3l1 3.2c0 .1 0 .2-.1.3l-1.1 1.3h-2.1L12 2.3z"/><path fill="#F9AB9B" d="M12.3 7.4h2.1l1.1-1.2c.1-.1.1-.2.1-.4l-1-3.2c0-.1-.2-.2-.3-.2h-3.7l1.9 2.5-.2 2.5z"/><path fill="#FFBCAB" d="M9.5 5.5c.1-.5.5-.9 1-.9h1.1l.4 1.1h-.5c-.5 0-.9.4-.9.9v.7h2.1l1.1-1.2c.1-.1.1-.3.1-.5l-1-3.4h-4L6.6 4.1l-5.5 11v2.7s2.9 2.4 6.6 2.4 6.7-1.5 6.7-1.5l2.9 2.9H23V9.1c-2.9 0-5 2.3-5 2.3-4-1.1-5.1 2.8-5.1 2.8S12.1 12 9.8 12s-3.2 2-3.2 2l2.7-6.2.2-2.3z"/><path d="M12.2 14.3c.2 0 .5 0 .6-.3-.7-1.6-1.9-2.2-3-2.2-.2 0-.4 0-.6.1 1.3.3 2.1 1.3 2.3 1.9.1.3.4.5.7.5zm1.7 4.3c-.5-.4-1.2-.4-1.7-.1-1 .7-2.9 1.6-5.1 1.7h.5c2.5 0 5.4-.9 6.6-1.4l-.3-.2zM9.6 5.3L6 13.9h.6l2.7-6.2.8-2zm13.3 6.3s-2.1.5-2.1 3.2 1.3 3.7 1.3 3.7-2.4 2.2-2.4 3.2h3.1V11.6h.1z" fill="#F9AB9B"/></svg>