<svg xmlns="http://www.w3.org/2000/svg" viewBox="0 0 24 24"><path fill="#FF926E" d="M12 10.7h-1.4v2.4H9.1v-2.4h-4V9.3h1.7V7.4h1.4v1.9h5.2v2.4h1.5V9.3h4V7.8h-1.7V5.9h-1.4v1.9H12V6.1H9.6V4.7H12V1c-1.1 0-2.1.6-2.5 1.5-.9-.5-2-.6-3-.1C5.6 3 5 4 5.1 5.1 4 5 3 5.6 2.5 6.5c-.5 1-.5 2.1.1 3C1.6 9.9 1 10.9 1 12s.6 2.1 1.5 2.5H12v-3.8z"/><path fill="#F46A1A" d="M21.5 9.5c.5-.9.6-2 .1-3C21 5.6 20 5 18.9 5.1c0-1-.5-2-1.4-2.6-1-.5-2.1-.5-3 .1-.4-1-1.4-1.6-2.5-1.6v3.7h2.4v1.4H12v1.7h3.8V5.9h1.4v1.9h1.7v1.4h-4v2.4h-1.5V9.3H12v5.3h9.5c.9-.5 1.5-1.4 1.5-2.5s-.6-2.2-1.5-2.6zm-1.7 3.6h-1.4v-1.4h1.4v1.4z"/><path fill="#FFB76E" d="M16.7 14.5H12c0 2.3 1.6 4.2 3.8 4.6V23h1.9v-3.8c-.3.1-.6.1-1 .1v-4.8zM9.6 4.7H12v1.4H9.6zM8.2 7.4H6.7v1.9H5.1v1.4h4v2.4h1.5v-2.4H12V9.3H8.2z"/><path fill="#FF926E" d="M12 4.7h2.4v1.4H12zm6.4 7h1.4v1.4h-1.4zm-1.7 7.6c.3 0 .6 0 1-.1 2.2-.4 3.8-2.3 3.8-4.6h-4.7v4.7z"/></svg>